<?xml version="1.0" encoding="UTF-8"?>
<svg id="Layer_1" data-name="Layer 1" xmlns="http://www.w3.org/2000/svg" viewBox="0 0 96 96">
  <defs>
    <style>
      .cls-1 {
        fill: #fff;
      }
    </style>
  </defs>
  <path class="cls-1" d="M78.4,18.24c0,8.17-15.88,14.78-35.48,14.78S7.45,26.42,7.45,18.24,23.33,3.48,42.92,3.48s35.48,6.61,35.48,14.77Z"/>
  <path class="cls-1" d="M50.43,73.63h14v8.3c-5.94,1.94-13.41,3.09-21.5,3.09-19.44,0-35.19-6.61-35.19-14.77v-14.64c5.43,6.2,19.32,10.65,35.19,10.84,4.63-.06,9.1-.48,13.23-1.21l-.37,.53-5.37,7.85Z"/>
  <path class="cls-1" d="M79.14,29.92v14.64l-4.01-5.77-4.14,5.96-8.05,11.58c-6.01,1.57-12.92,2.46-19.49,2.52-14.94-.13-31.68-4.59-35.69-11.62V29.92c5.4,5.48,22.66,9.94,35.51,10.11h.36c12.86-.18,30.12-4.64,35.51-10.11Z"/>
  <polygon class="cls-1" points="88.55 68.38 79.14 68.38 79.14 92.52 69.69 92.52 69.69 68.38 60.26 68.38 63.65 63.39 70.37 53.54 74.4 47.61 76.02 50 88.55 68.38"/>
</svg>